<svg width="65" height="64" viewBox="0 0 65 64" fill="none" xmlns="http://www.w3.org/2000/svg">
<path opacity="0.5" d="M64.0644 1.3637L48.386 58.8472C48.3063 59.1082 47.9874 59.1864 47.8014 59.0038L37.3049 48.6969L45.1706 19.8899C45.2504 19.629 45.0112 19.3942 44.7455 19.4724L15.4083 27.1961L4.96488 16.9414C4.77887 16.7587 4.85859 16.4456 5.12432 16.3673L63.6393 0.946206C63.905 0.89402 64.1441 1.12886 64.0644 1.3637Z" fill="#00B37E"/>
<path opacity="0.5" d="M37.3043 48.6964L33.2652 63.5696C33.1854 63.8306 32.8666 63.9088 32.6805 63.7262L0.101377 31.7619C-0.0846374 31.5792 -0.00491722 31.2661 0.260818 31.1878L15.4077 27.1956L37.3043 48.6964Z" fill="#00B37E"/>
<path d="M45.1693 19.8894L37.3036 48.6965L15.407 27.1956L44.7441 19.4719C45.0099 19.3937 45.249 19.6285 45.1693 19.8894Z" fill="#00B37E"/>
</svg>
